<?xml version="1.0" encoding="UTF-8"?>
<svg width="465px" height="329px" viewBox="0 0 465 329" version="1.1" xmlns="http://www.w3.org/2000/svg" xmlns:xlink="http://www.w3.org/1999/xlink">
    <!-- Generator: Sketch 51.3 (57544) - http://www.bohemiancoding.com/sketch -->
    <title>iphone</title>
    <desc>Created with Sketch.</desc>
    <defs></defs>
    <g id="Page-1" stroke="none" stroke-width="1" fill="none" fill-rule="evenodd">
        <g id="iphone">
            <g id="Group-2">
                <g id="Mobile">
                    <g id="path-1-link" fill="#000000" fill-rule="nonzero">
                        <path d="M149.080906,4.4571734 L12.5029095,77.3529366 C1.6787874,83.1300945 -2.4125855,96.588091 3.3645723,107.412213 C4.8563343,110.207188 6.9286507,112.650768 9.4424614,114.578979 L279.225791,321.515465 C289.874124,329.683236 304.325772,330.837768 316.135804,324.46418 L453.769601,250.186549 C463.847117,244.747957 467.607708,232.169667 462.169116,222.092151 C460.783001,219.52373 458.870275,217.276868 456.55605,215.498536 L185.87597,7.4983703 C175.271404,-0.65055341 160.879481,-1.84007907 149.080906,4.4571734 Z" id="path-1"></path>
                    </g>
                    <g id="path-1-link">
                        <path d="M149.080906,4.4571734 L12.5029095,77.3529366 C1.6787874,83.1300945 -2.4125855,96.588091 3.3645723,107.412213 C4.8563343,110.207188 6.9286507,112.650768 9.4424614,114.578979 L279.225791,321.515465 C289.874124,329.683236 304.325772,330.837768 316.135804,324.46418 L453.769601,250.186549 C463.847117,244.747957 467.607708,232.169667 462.169116,222.092151 C460.783001,219.52373 458.870275,217.276868 456.55605,215.498536 L185.87597,7.4983703 C175.271404,-0.65055341 160.879481,-1.84007907 149.080906,4.4571734 Z" id="path-1"></path>
                    </g>
                    <g id="path-1-link" fill="#212121" fill-rule="nonzero">
                        <path d="M149.080906,4.4571734 L12.5029095,77.3529366 C1.6787874,83.1300945 -2.4125855,96.588091 3.3645723,107.412213 C4.8563343,110.207188 6.9286507,112.650768 9.4424614,114.578979 L279.225791,321.515465 C289.874124,329.683236 304.325772,330.837768 316.135804,324.46418 L453.769601,250.186549 C463.847117,244.747957 467.607708,232.169667 462.169116,222.092151 C460.783001,219.52373 458.870275,217.276868 456.55605,215.498536 L185.87597,7.4983703 C175.271404,-0.65055341 160.879481,-1.84007907 149.080906,4.4571734 Z" id="path-1"></path>
                    </g>
                </g>
                <g id="Button" transform="translate(341.000000, 242.000000)">
                    <g id="path-4-link" fill="#E2E2E2">
                        <path d="M7.023463,2.932517 C14.228716,-0.963352 24.733627,-0.509042 30.487058,3.947582 C36.240488,8.404029 35.063638,15.175175 27.858386,19.071044 C20.653311,22.967092 10.148222,22.512603 4.394791,18.055978 C-1.358639,13.599532 -0.181611,6.828564 7.023463,2.932517 Z" id="path-4"></path>
                    </g>
                    <g id="path-4-link" fill="#0E0E0E" fill-rule="nonzero">
                        <path d="M7.023463,2.932517 C14.228716,-0.963352 24.733627,-0.509042 30.487058,3.947582 C36.240488,8.404029 35.063638,15.175175 27.858386,19.071044 C20.653311,22.967092 10.148222,22.512603 4.394791,18.055978 C-1.358639,13.599532 -0.181611,6.828564 7.023463,2.932517 Z" id="path-4"></path>
                    </g>
                </g>
            </g>
            <polygon id="base" fill="#477890" fill-rule="nonzero" points="416.385806 195.312524 182.847693 14.8017429 25.9869668 100.37143 259.519005 280.413301"></polygon>
        </g>
    </g>
</svg>